<svg width="42px" height="48px" viewBox="0 0 43 48" fill="none"
    xmlns="http://www.w3.org/2000/svg">
    <path d="M20.957 47.671C20.8728 47.6401 12.4421 44.4708 7.75654 41.2369C0.57798 36.2849 0.260742 29.4599 0.260742 15.7201V7.46946L21.0468 0.295837L41.8301 7.47227V15.7229C41.8301 29.4628 41.5129 36.2877 34.3343 41.2398C29.6488 44.4737 21.2209 47.6429 21.1367 47.6738L21.0468 47.7075L20.957 47.671Z" fill="#001538"></path>
    <path d="M21.0466 0.565799L41.5744 7.65506V15.7229C41.5744 29.3165 41.2965 36.1246 34.1881 41.0288C29.4744 44.2824 21.0438 47.4348 21.0438 47.4348C21.0438 47.4348 12.6159 44.2824 7.90226 41.026C0.796696 36.1218 0.515955 29.3137 0.515955 15.7201V7.65225L21.0466 0.565799ZM21.0466 0.0258789L20.8809 0.0821205L0.350317 7.17138L0.0078125 7.28949V7.65225V15.7201C0.0078125 29.5499 0.330665 36.4198 7.6131 41.445C12.3239 44.6986 20.5216 47.7807 20.8697 47.91L21.0466 47.9775L21.2234 47.91C21.5688 47.7807 29.7664 44.6986 34.4773 41.445C41.7597 36.4198 42.0825 29.5499 42.0825 15.7201V7.65225V7.28949L41.74 7.17138L21.2122 0.0821205L21.0466 0.0258789Z" fill="#EEEEEE"></path>
    <path d="M9.2444 22.8628C7.49538 22.9302 5.10627 22.9021 2.61328 22.6153C2.65539 24.0776 2.72558 25.433 2.84068 26.69C5.0445 26.4369 7.08549 26.0179 8.60711 25.6327C8.75871 24.6569 8.97488 23.7345 9.2444 22.8628Z" fill="#EEEEEE"></path>
    <path d="M11.499 18.0963C9.10707 17.1374 5.53323 15.4305 2.55176 13.178V16.4372C2.55176 17.0727 2.55176 17.6886 2.55456 18.2903C5.34233 19.3449 8.19747 20.0057 10.2216 20.3544C10.6062 19.5473 11.0358 18.7965 11.499 18.0963Z" fill="#EEEEEE"></path>
    <path d="M9.20007 35.8293C8.69473 36.4367 8.08833 37.1285 7.40332 37.8568C7.94234 38.3602 8.54032 38.841 9.20849 39.3022C9.62399 39.589 10.0704 39.8759 10.5364 40.1571C9.97491 38.647 9.53415 37.2072 9.20007 35.8293Z" fill="#EEEEEE"></path>
    <path d="M8.34389 28.6838C7.05528 29.3193 5.35118 30.0701 3.45898 30.7338C3.79587 32.1736 4.2591 33.4615 4.88796 34.6285C6.30009 33.7287 7.54939 32.8175 8.51514 32.0583C8.38038 30.8772 8.32704 29.7524 8.34389 28.6838Z" fill="#EEEEEE"></path>
    <path d="M16.9563 12.7027C17.7985 12.1572 18.6155 11.7241 19.3538 11.4036C18.6688 9.54196 17.8462 6.85924 17.3549 4.02466L13.2842 5.43351C14.3791 8.28215 15.8389 10.9255 16.9563 12.7027Z" fill="#EEEEEE"></path>
    <path d="M14.8649 14.2747C13.2057 12.5649 10.8839 9.85972 9.11246 6.8761L4.54199 8.4593C7.06867 11.6819 10.6734 14.48 13.0485 16.0716C13.6352 15.408 14.2472 14.809 14.8649 14.2747Z" fill="#EEEEEE"></path>
    <path d="M28.7167 18.954C29.1266 19.2886 30.1906 18.9765 30.1906 18.9765L29.4214 18.0597L27.7734 16.9574C27.7706 16.9602 28.3069 18.6193 28.7167 18.954Z" fill="#EEEEEE"></path>
    <path d="M34.0984 28.1354L33.1074 27.3368L33.6773 28.7175L35.2832 28.5966L34.0984 28.1354Z" fill="#EEEEEE"></path>
    <path d="M22.2125 3.14728C21.5331 5.32945 21.317 8.01218 22.0806 10.6499C22.3894 10.3265 24.4725 8.14997 26.3422 6.09153C26.3422 6.09153 28.8352 8.95423 25.3512 11.9041C25.3512 11.9041 31.564 16.2516 31.9627 16.4372C31.9627 16.4372 31.6398 17.7898 31.9514 18.9456L36.8363 28.4307L34.3714 31.3412L30.7555 29.2996L32.4989 32.1005C32.4989 32.1005 30.5281 32.3451 29.9273 32.047C29.5876 30.2726 28.0183 27.3987 28.0183 27.3987L24.3405 25.9055C24.3405 25.9055 22.7375 23.9314 22.8498 21.0546C22.8498 21.0546 21.0474 28.636 25.966 30.4779L32.8919 39.2994C39.2928 34.8704 39.5455 28.7175 39.5455 16.4372V9.14826L22.2125 3.14728Z" fill="#EEEEEE"></path>
</svg>